# مدل سه‌بعدی — زمین ۵۴۲٫۳۸ m² اصفهان
# یکا: متر · محور Z رو به بالا · مبدأ: گوشه جنوب‌غربی زمین
mtllib model.mtl
v 0.0000 0.0000 -0.0200
v 40.5700 0.0000 -0.0200
v 40.5700 13.3700 -0.0200
v 0.0000 13.3700 -0.0200
v 0.0000 0.0000 0.0000
v 40.5700 0.0000 0.0000
v 40.5700 13.3700 0.0000
v 0.0000 13.3700 0.0000
v 0.0000 2.6700 0.0000
v 22.6000 2.6700 0.0000
v 22.6000 13.3700 0.0000
v 0.0000 13.3700 0.0000
v 0.0000 2.6700 5.4000
v 22.6000 2.6700 5.4000
v 22.6000 13.3700 5.4000
v 0.0000 13.3700 5.4000
v 22.6000 2.6700 0.0000
v 40.5700 2.6700 0.0000
v 40.5700 13.3700 0.0000
v 22.6000 13.3700 0.0000
v 22.6000 2.6700 5.4000
v 40.5700 2.6700 5.4000
v 40.5700 13.3700 5.4000
v 22.6000 13.3700 5.4000
v 22.5720 2.6700 5.1000
v 40.5700 2.6700 5.1000
v 40.5700 13.3700 5.1000
v 22.5720 13.3700 5.1000
v 22.5720 2.6700 5.4000
v 40.5700 2.6700 5.4000
v 40.5700 13.3700 5.4000
v 22.5720 13.3700 5.4000
v 0.0000 5.0700 5.4000
v 9.1860 5.0700 5.4000
v 9.1860 13.3700 5.4000
v 0.0000 13.3700 5.4000
v 0.0000 5.0700 8.3000
v 9.1860 5.0700 8.3000
v 9.1860 13.3700 8.3000
v 0.0000 13.3700 8.3000
v 13.3860 5.0700 5.4000
v 22.5720 5.0700 5.4000
v 22.5720 13.3700 5.4000
v 13.3860 13.3700 5.4000
v 13.3860 5.0700 8.3000
v 22.5720 5.0700 8.3000
v 22.5720 13.3700 8.3000
v 13.3860 13.3700 8.3000
v 9.1860 5.0700 5.4000
v 13.3860 5.0700 5.4000
v 13.3860 10.3700 5.4000
v 9.1860 10.3700 5.4000
v 9.1860 5.0700 8.3000
v 13.3860 5.0700 8.3000
v 13.3860 10.3700 8.3000
v 9.1860 10.3700 8.3000
v 0.0000 2.6700 5.1000
v 9.1860 2.6700 5.1000
v 9.1860 13.3700 5.1000
v 0.0000 13.3700 5.1000
v 0.0000 2.6700 5.4000
v 9.1860 2.6700 5.4000
v 9.1860 13.3700 5.4000
v 0.0000 13.3700 5.4000
v 13.3860 2.6700 5.1000
v 22.5720 2.6700 5.1000
v 22.5720 13.3700 5.1000
v 13.3860 13.3700 5.1000
v 13.3860 2.6700 5.4000
v 22.5720 2.6700 5.4000
v 22.5720 13.3700 5.4000
v 13.3860 13.3700 5.4000
v 0.0000 2.6700 5.1000
v 6.5600 2.6700 5.1000
v 6.5600 5.0700 5.1000
v 0.0000 5.0700 5.1000
v 0.0000 2.6700 5.4000
v 6.5600 2.6700 5.4000
v 6.5600 5.0700 5.4000
v 0.0000 5.0700 5.4000
v 16.0120 2.6700 5.1000
v 22.5720 2.6700 5.1000
v 22.5720 5.0700 5.1000
v 16.0120 5.0700 5.1000
v 16.0120 2.6700 5.4000
v 22.5720 2.6700 5.4000
v 22.5720 5.0700 5.4000
v 16.0120 5.0700 5.4000
v 0.0000 2.6700 5.4000
v 6.5600 2.6700 5.4000
v 6.5600 2.7900 5.4000
v 0.0000 2.7900 5.4000
v 0.0000 2.6700 8.3000
v 6.5600 2.6700 8.3000
v 6.5600 2.7900 8.3000
v 0.0000 2.7900 8.3000
v 16.0120 2.6700 5.4000
v 22.5720 2.6700 5.4000
v 22.5720 2.7900 5.4000
v 16.0120 2.7900 5.4000
v 16.0120 2.6700 8.3000
v 22.5720 2.6700 8.3000
v 22.5720 2.7900 8.3000
v 16.0120 2.7900 8.3000
v 0.0000 5.0700 8.3000
v 9.1860 5.0700 8.3000
v 9.1860 13.3700 8.3000
v 0.0000 13.3700 8.3000
v 0.0000 5.0700 11.2000
v 9.1860 5.0700 11.2000
v 9.1860 13.3700 11.2000
v 0.0000 13.3700 11.2000
v 13.3860 5.0700 8.3000
v 22.5720 5.0700 8.3000
v 22.5720 13.3700 8.3000
v 13.3860 13.3700 8.3000
v 13.3860 5.0700 11.2000
v 22.5720 5.0700 11.2000
v 22.5720 13.3700 11.2000
v 13.3860 13.3700 11.2000
v 9.1860 5.0700 8.3000
v 13.3860 5.0700 8.3000
v 13.3860 10.3700 8.3000
v 9.1860 10.3700 8.3000
v 9.1860 5.0700 11.2000
v 13.3860 5.0700 11.2000
v 13.3860 10.3700 11.2000
v 9.1860 10.3700 11.2000
v 0.0000 2.6700 8.0000
v 9.1860 2.6700 8.0000
v 9.1860 13.3700 8.0000
v 0.0000 13.3700 8.0000
v 0.0000 2.6700 8.3000
v 9.1860 2.6700 8.3000
v 9.1860 13.3700 8.3000
v 0.0000 13.3700 8.3000
v 13.3860 2.6700 8.0000
v 22.5720 2.6700 8.0000
v 22.5720 13.3700 8.0000
v 13.3860 13.3700 8.0000
v 13.3860 2.6700 8.3000
v 22.5720 2.6700 8.3000
v 22.5720 13.3700 8.3000
v 13.3860 13.3700 8.3000
v 0.0000 2.6700 8.0000
v 6.5600 2.6700 8.0000
v 6.5600 5.0700 8.0000
v 0.0000 5.0700 8.0000
v 0.0000 2.6700 8.3000
v 6.5600 2.6700 8.3000
v 6.5600 5.0700 8.3000
v 0.0000 5.0700 8.3000
v 16.0120 2.6700 8.0000
v 22.5720 2.6700 8.0000
v 22.5720 5.0700 8.0000
v 16.0120 5.0700 8.0000
v 16.0120 2.6700 8.3000
v 22.5720 2.6700 8.3000
v 22.5720 5.0700 8.3000
v 16.0120 5.0700 8.3000
v 0.0000 2.6700 8.3000
v 6.5600 2.6700 8.3000
v 6.5600 2.7900 8.3000
v 0.0000 2.7900 8.3000
v 0.0000 2.6700 11.2000
v 6.5600 2.6700 11.2000
v 6.5600 2.7900 11.2000
v 0.0000 2.7900 11.2000
v 16.0120 2.6700 8.3000
v 22.5720 2.6700 8.3000
v 22.5720 2.7900 8.3000
v 16.0120 2.7900 8.3000
v 16.0120 2.6700 11.2000
v 22.5720 2.6700 11.2000
v 22.5720 2.7900 11.2000
v 16.0120 2.7900 11.2000
v 0.0000 5.0700 11.2000
v 9.1860 5.0700 11.2000
v 9.1860 13.3700 11.2000
v 0.0000 13.3700 11.2000
v 0.0000 5.0700 14.1000
v 9.1860 5.0700 14.1000
v 9.1860 13.3700 14.1000
v 0.0000 13.3700 14.1000
v 13.3860 5.0700 11.2000
v 22.5720 5.0700 11.2000
v 22.5720 13.3700 11.2000
v 13.3860 13.3700 11.2000
v 13.3860 5.0700 14.1000
v 22.5720 5.0700 14.1000
v 22.5720 13.3700 14.1000
v 13.3860 13.3700 14.1000
v 9.1860 5.0700 11.2000
v 13.3860 5.0700 11.2000
v 13.3860 10.3700 11.2000
v 9.1860 10.3700 11.2000
v 9.1860 5.0700 14.1000
v 13.3860 5.0700 14.1000
v 13.3860 10.3700 14.1000
v 9.1860 10.3700 14.1000
v 0.0000 2.6700 10.9000
v 9.1860 2.6700 10.9000
v 9.1860 13.3700 10.9000
v 0.0000 13.3700 10.9000
v 0.0000 2.6700 11.2000
v 9.1860 2.6700 11.2000
v 9.1860 13.3700 11.2000
v 0.0000 13.3700 11.2000
v 13.3860 2.6700 10.9000
v 22.5720 2.6700 10.9000
v 22.5720 13.3700 10.9000
v 13.3860 13.3700 10.9000
v 13.3860 2.6700 11.2000
v 22.5720 2.6700 11.2000
v 22.5720 13.3700 11.2000
v 13.3860 13.3700 11.2000
v 0.0000 2.6700 10.9000
v 6.5600 2.6700 10.9000
v 6.5600 5.0700 10.9000
v 0.0000 5.0700 10.9000
v 0.0000 2.6700 11.2000
v 6.5600 2.6700 11.2000
v 6.5600 5.0700 11.2000
v 0.0000 5.0700 11.2000
v 16.0120 2.6700 10.9000
v 22.5720 2.6700 10.9000
v 22.5720 5.0700 10.9000
v 16.0120 5.0700 10.9000
v 16.0120 2.6700 11.2000
v 22.5720 2.6700 11.2000
v 22.5720 5.0700 11.2000
v 16.0120 5.0700 11.2000
v 0.0000 2.6700 11.2000
v 6.5600 2.6700 11.2000
v 6.5600 2.7900 11.2000
v 0.0000 2.7900 11.2000
v 0.0000 2.6700 14.1000
v 6.5600 2.6700 14.1000
v 6.5600 2.7900 14.1000
v 0.0000 2.7900 14.1000
v 16.0120 2.6700 11.2000
v 22.5720 2.6700 11.2000
v 22.5720 2.7900 11.2000
v 16.0120 2.7900 11.2000
v 16.0120 2.6700 14.1000
v 22.5720 2.6700 14.1000
v 22.5720 2.7900 14.1000
v 16.0120 2.7900 14.1000
v 0.0000 5.0700 14.1000
v 9.1860 5.0700 14.1000
v 9.1860 13.3700 14.1000
v 0.0000 13.3700 14.1000
v 0.0000 5.0700 17.0000
v 9.1860 5.0700 17.0000
v 9.1860 13.3700 17.0000
v 0.0000 13.3700 17.0000
v 13.3860 5.0700 14.1000
v 22.5720 5.0700 14.1000
v 22.5720 13.3700 14.1000
v 13.3860 13.3700 14.1000
v 13.3860 5.0700 17.0000
v 22.5720 5.0700 17.0000
v 22.5720 13.3700 17.0000
v 13.3860 13.3700 17.0000
v 9.1860 5.0700 14.1000
v 13.3860 5.0700 14.1000
v 13.3860 10.3700 14.1000
v 9.1860 10.3700 14.1000
v 9.1860 5.0700 17.0000
v 13.3860 5.0700 17.0000
v 13.3860 10.3700 17.0000
v 9.1860 10.3700 17.0000
v 0.0000 2.6700 13.8000
v 9.1860 2.6700 13.8000
v 9.1860 13.3700 13.8000
v 0.0000 13.3700 13.8000
v 0.0000 2.6700 14.1000
v 9.1860 2.6700 14.1000
v 9.1860 13.3700 14.1000
v 0.0000 13.3700 14.1000
v 13.3860 2.6700 13.8000
v 22.5720 2.6700 13.8000
v 22.5720 13.3700 13.8000
v 13.3860 13.3700 13.8000
v 13.3860 2.6700 14.1000
v 22.5720 2.6700 14.1000
v 22.5720 13.3700 14.1000
v 13.3860 13.3700 14.1000
v 0.0000 2.6700 13.8000
v 6.5600 2.6700 13.8000
v 6.5600 5.0700 13.8000
v 0.0000 5.0700 13.8000
v 0.0000 2.6700 14.1000
v 6.5600 2.6700 14.1000
v 6.5600 5.0700 14.1000
v 0.0000 5.0700 14.1000
v 16.0120 2.6700 13.8000
v 22.5720 2.6700 13.8000
v 22.5720 5.0700 13.8000
v 16.0120 5.0700 13.8000
v 16.0120 2.6700 14.1000
v 22.5720 2.6700 14.1000
v 22.5720 5.0700 14.1000
v 16.0120 5.0700 14.1000
v 0.0000 2.6700 14.1000
v 6.5600 2.6700 14.1000
v 6.5600 2.7900 14.1000
v 0.0000 2.7900 14.1000
v 0.0000 2.6700 17.0000
v 6.5600 2.6700 17.0000
v 6.5600 2.7900 17.0000
v 0.0000 2.7900 17.0000
v 16.0120 2.6700 14.1000
v 22.5720 2.6700 14.1000
v 22.5720 2.7900 14.1000
v 16.0120 2.7900 14.1000
v 16.0120 2.6700 17.0000
v 22.5720 2.6700 17.0000
v 22.5720 2.7900 17.0000
v 16.0120 2.7900 17.0000
v 0.0000 5.0700 17.0000
v 9.1860 5.0700 17.0000
v 9.1860 13.3700 17.0000
v 0.0000 13.3700 17.0000
v 0.0000 5.0700 19.9000
v 9.1860 5.0700 19.9000
v 9.1860 13.3700 19.9000
v 0.0000 13.3700 19.9000
v 13.3860 5.0700 17.0000
v 22.5720 5.0700 17.0000
v 22.5720 13.3700 17.0000
v 13.3860 13.3700 17.0000
v 13.3860 5.0700 19.9000
v 22.5720 5.0700 19.9000
v 22.5720 13.3700 19.9000
v 13.3860 13.3700 19.9000
v 9.1860 5.0700 17.0000
v 13.3860 5.0700 17.0000
v 13.3860 10.3700 17.0000
v 9.1860 10.3700 17.0000
v 9.1860 5.0700 19.9000
v 13.3860 5.0700 19.9000
v 13.3860 10.3700 19.9000
v 9.1860 10.3700 19.9000
v 0.0000 2.6700 16.7000
v 9.1860 2.6700 16.7000
v 9.1860 13.3700 16.7000
v 0.0000 13.3700 16.7000
v 0.0000 2.6700 17.0000
v 9.1860 2.6700 17.0000
v 9.1860 13.3700 17.0000
v 0.0000 13.3700 17.0000
v 13.3860 2.6700 16.7000
v 22.5720 2.6700 16.7000
v 22.5720 13.3700 16.7000
v 13.3860 13.3700 16.7000
v 13.3860 2.6700 17.0000
v 22.5720 2.6700 17.0000
v 22.5720 13.3700 17.0000
v 13.3860 13.3700 17.0000
v 0.0000 2.6700 16.7000
v 6.5600 2.6700 16.7000
v 6.5600 5.0700 16.7000
v 0.0000 5.0700 16.7000
v 0.0000 2.6700 17.0000
v 6.5600 2.6700 17.0000
v 6.5600 5.0700 17.0000
v 0.0000 5.0700 17.0000
v 16.0120 2.6700 16.7000
v 22.5720 2.6700 16.7000
v 22.5720 5.0700 16.7000
v 16.0120 5.0700 16.7000
v 16.0120 2.6700 17.0000
v 22.5720 2.6700 17.0000
v 22.5720 5.0700 17.0000
v 16.0120 5.0700 17.0000
v 0.0000 2.6700 17.0000
v 6.5600 2.6700 17.0000
v 6.5600 2.7900 17.0000
v 0.0000 2.7900 17.0000
v 0.0000 2.6700 19.9000
v 6.5600 2.6700 19.9000
v 6.5600 2.7900 19.9000
v 0.0000 2.7900 19.9000
v 16.0120 2.6700 17.0000
v 22.5720 2.6700 17.0000
v 22.5720 2.7900 17.0000
v 16.0120 2.7900 17.0000
v 16.0120 2.6700 19.9000
v 22.5720 2.6700 19.9000
v 22.5720 2.7900 19.9000
v 16.0120 2.7900 19.9000
v 9.0360 10.3700 5.4000
v 9.1860 10.3700 5.4000
v 9.1860 13.3700 5.4000
v 9.0360 13.3700 5.4000
v 9.0360 10.3700 19.9000
v 9.1860 10.3700 19.9000
v 9.1860 13.3700 19.9000
v 9.0360 13.3700 19.9000
v 13.3860 10.3700 5.4000
v 13.5360 10.3700 5.4000
v 13.5360 13.3700 5.4000
v 13.3860 13.3700 5.4000
v 13.3860 10.3700 19.9000
v 13.5360 10.3700 19.9000
v 13.5360 13.3700 19.9000
v 13.3860 13.3700 19.9000
v 9.1860 10.2200 5.4000
v 13.3860 10.2200 5.4000
v 13.3860 10.3700 5.4000
v 9.1860 10.3700 5.4000
v 9.1860 10.2200 19.9000
v 13.3860 10.2200 19.9000
v 13.3860 10.3700 19.9000
v 9.1860 10.3700 19.9000
v 0.0000 5.0700 19.6000
v 22.5720 5.0700 19.6000
v 22.5720 13.3700 19.6000
v 0.0000 13.3700 19.6000
v 0.0000 5.0700 19.9000
v 22.5720 5.0700 19.9000
v 22.5720 13.3700 19.9000
v 0.0000 13.3700 19.9000
v 0.0000 13.1200 19.9000
v 22.5720 13.1200 19.9000
v 22.5720 13.3700 19.9000
v 0.0000 13.3700 19.9000
v 0.0000 13.1200 20.9000
v 22.5720 13.1200 20.9000
v 22.5720 13.3700 20.9000
v 0.0000 13.3700 20.9000
v 22.5720 2.6700 5.4000
v 40.5700 2.6700 5.4000
v 40.5700 2.8200 5.4000
v 22.5720 2.8200 5.4000
v 22.5720 2.6700 6.5000
v 40.5700 2.6700 6.5000
v 40.5700 2.8200 6.5000
v 22.5720 2.8200 6.5000
v 9.1860 13.3700 0.0000
v 11.7860 13.3700 0.0000
v 11.7860 15.8700 0.0000
v 9.1860 15.8700 0.0000
v 9.1860 13.3700 3.2000
v 11.7860 13.3700 3.2000
v 11.7860 15.8700 3.2000
v 9.1860 15.8700 3.2000
v 22.6000 13.2700 3.4000
v 28.5900 13.2700 3.4000
v 28.5900 14.9700 3.4000
v 22.6000 14.9700 3.4000
v 22.6000 13.2700 3.5500
v 28.5900 13.2700 3.5500
v 28.5900 14.9700 3.5500
v 22.6000 14.9700 3.5500
v 28.5900 13.2700 3.4000
v 34.5800 13.2700 3.4000
v 34.5800 14.9700 3.4000
v 28.5900 14.9700 3.4000
v 28.5900 13.2700 3.5500
v 34.5800 13.2700 3.5500
v 34.5800 14.9700 3.5500
v 28.5900 14.9700 3.5500
v 34.5800 13.2700 3.4000
v 40.5700 13.2700 3.4000
v 40.5700 14.9700 3.4000
v 34.5800 14.9700 3.4000
v 34.5800 13.2700 3.5500
v 40.5700 13.2700 3.5500
v 40.5700 14.9700 3.5500
v 34.5800 14.9700 3.5500
g SITE_PLOT
usemtl site
f 1 2 6
f 1 6 5
f 2 3 7
f 2 7 6
f 3 4 8
f 3 8 7
f 4 1 5
f 4 5 8
f 5 6 7
f 5 7 8
f 4 3 2
f 4 2 1
g PODIUM_PARKING
usemtl concrete
f 9 10 14
f 9 14 13
f 10 11 15
f 10 15 14
f 11 12 16
f 11 16 15
f 12 9 13
f 12 13 16
f 13 14 15
f 13 15 16
f 12 11 10
f 12 10 9
g PODIUM_SHOPS
usemtl shopfront
f 17 18 22
f 17 22 21
f 18 19 23
f 18 23 22
f 19 20 24
f 19 24 23
f 20 17 21
f 20 21 24
f 21 22 23
f 21 23 24
f 20 19 18
f 20 18 17
g PODIUM_TERRACE
usemtl terrace
f 25 26 30
f 25 30 29
f 26 27 31
f 26 31 30
f 27 28 32
f 27 32 31
f 28 25 29
f 28 29 32
f 29 30 31
f 29 31 32
f 28 27 26
f 28 26 25
g FLOOR_1_WEST_WING
usemtl facade
f 33 34 38
f 33 38 37
f 34 35 39
f 34 39 38
f 35 36 40
f 35 40 39
f 36 33 37
f 36 37 40
f 37 38 39
f 37 39 40
f 36 35 34
f 36 34 33
g FLOOR_1_EAST_WING
usemtl facade
f 41 42 46
f 41 46 45
f 42 43 47
f 42 47 46
f 43 44 48
f 43 48 47
f 44 41 45
f 44 45 48
f 45 46 47
f 45 47 48
f 44 43 42
f 44 42 41
g FLOOR_1_CORE
usemtl core
f 49 50 54
f 49 54 53
f 50 51 55
f 50 55 54
f 51 52 56
f 51 56 55
f 52 49 53
f 52 53 56
f 53 54 55
f 53 55 56
f 52 51 50
f 52 50 49
g FLOOR_1_SLAB_W
usemtl slab
f 57 58 62
f 57 62 61
f 58 59 63
f 58 63 62
f 59 60 64
f 59 64 63
f 60 57 61
f 60 61 64
f 61 62 63
f 61 63 64
f 60 59 58
f 60 58 57
g FLOOR_1_SLAB_E
usemtl slab
f 65 66 70
f 65 70 69
f 66 67 71
f 66 71 70
f 67 68 72
f 67 72 71
f 68 65 69
f 68 69 72
f 69 70 71
f 69 71 72
f 68 67 66
f 68 66 65
g FLOOR_1_BALCONY_W
usemtl balcony
f 73 74 78
f 73 78 77
f 74 75 79
f 74 79 78
f 75 76 80
f 75 80 79
f 76 73 77
f 76 77 80
f 77 78 79
f 77 79 80
f 76 75 74
f 76 74 73
g FLOOR_1_BALCONY_E
usemtl balcony
f 81 82 86
f 81 86 85
f 82 83 87
f 82 87 86
f 83 84 88
f 83 88 87
f 84 81 85
f 84 85 88
f 85 86 87
f 85 87 88
f 84 83 82
f 84 82 81
g FLOOR_1_RAIL_W
usemtl railing
f 89 90 94
f 89 94 93
f 90 91 95
f 90 95 94
f 91 92 96
f 91 96 95
f 92 89 93
f 92 93 96
f 93 94 95
f 93 95 96
f 92 91 90
f 92 90 89
g FLOOR_1_RAIL_E
usemtl railing
f 97 98 102
f 97 102 101
f 98 99 103
f 98 103 102
f 99 100 104
f 99 104 103
f 100 97 101
f 100 101 104
f 101 102 103
f 101 103 104
f 100 99 98
f 100 98 97
g FLOOR_2_WEST_WING
usemtl facade
f 105 106 110
f 105 110 109
f 106 107 111
f 106 111 110
f 107 108 112
f 107 112 111
f 108 105 109
f 108 109 112
f 109 110 111
f 109 111 112
f 108 107 106
f 108 106 105
g FLOOR_2_EAST_WING
usemtl facade
f 113 114 118
f 113 118 117
f 114 115 119
f 114 119 118
f 115 116 120
f 115 120 119
f 116 113 117
f 116 117 120
f 117 118 119
f 117 119 120
f 116 115 114
f 116 114 113
g FLOOR_2_CORE
usemtl core
f 121 122 126
f 121 126 125
f 122 123 127
f 122 127 126
f 123 124 128
f 123 128 127
f 124 121 125
f 124 125 128
f 125 126 127
f 125 127 128
f 124 123 122
f 124 122 121
g FLOOR_2_SLAB_W
usemtl slab
f 129 130 134
f 129 134 133
f 130 131 135
f 130 135 134
f 131 132 136
f 131 136 135
f 132 129 133
f 132 133 136
f 133 134 135
f 133 135 136
f 132 131 130
f 132 130 129
g FLOOR_2_SLAB_E
usemtl slab
f 137 138 142
f 137 142 141
f 138 139 143
f 138 143 142
f 139 140 144
f 139 144 143
f 140 137 141
f 140 141 144
f 141 142 143
f 141 143 144
f 140 139 138
f 140 138 137
g FLOOR_2_BALCONY_W
usemtl balcony
f 145 146 150
f 145 150 149
f 146 147 151
f 146 151 150
f 147 148 152
f 147 152 151
f 148 145 149
f 148 149 152
f 149 150 151
f 149 151 152
f 148 147 146
f 148 146 145
g FLOOR_2_BALCONY_E
usemtl balcony
f 153 154 158
f 153 158 157
f 154 155 159
f 154 159 158
f 155 156 160
f 155 160 159
f 156 153 157
f 156 157 160
f 157 158 159
f 157 159 160
f 156 155 154
f 156 154 153
g FLOOR_2_RAIL_W
usemtl railing
f 161 162 166
f 161 166 165
f 162 163 167
f 162 167 166
f 163 164 168
f 163 168 167
f 164 161 165
f 164 165 168
f 165 166 167
f 165 167 168
f 164 163 162
f 164 162 161
g FLOOR_2_RAIL_E
usemtl railing
f 169 170 174
f 169 174 173
f 170 171 175
f 170 175 174
f 171 172 176
f 171 176 175
f 172 169 173
f 172 173 176
f 173 174 175
f 173 175 176
f 172 171 170
f 172 170 169
g FLOOR_3_WEST_WING
usemtl facade
f 177 178 182
f 177 182 181
f 178 179 183
f 178 183 182
f 179 180 184
f 179 184 183
f 180 177 181
f 180 181 184
f 181 182 183
f 181 183 184
f 180 179 178
f 180 178 177
g FLOOR_3_EAST_WING
usemtl facade
f 185 186 190
f 185 190 189
f 186 187 191
f 186 191 190
f 187 188 192
f 187 192 191
f 188 185 189
f 188 189 192
f 189 190 191
f 189 191 192
f 188 187 186
f 188 186 185
g FLOOR_3_CORE
usemtl core
f 193 194 198
f 193 198 197
f 194 195 199
f 194 199 198
f 195 196 200
f 195 200 199
f 196 193 197
f 196 197 200
f 197 198 199
f 197 199 200
f 196 195 194
f 196 194 193
g FLOOR_3_SLAB_W
usemtl slab
f 201 202 206
f 201 206 205
f 202 203 207
f 202 207 206
f 203 204 208
f 203 208 207
f 204 201 205
f 204 205 208
f 205 206 207
f 205 207 208
f 204 203 202
f 204 202 201
g FLOOR_3_SLAB_E
usemtl slab
f 209 210 214
f 209 214 213
f 210 211 215
f 210 215 214
f 211 212 216
f 211 216 215
f 212 209 213
f 212 213 216
f 213 214 215
f 213 215 216
f 212 211 210
f 212 210 209
g FLOOR_3_BALCONY_W
usemtl balcony
f 217 218 222
f 217 222 221
f 218 219 223
f 218 223 222
f 219 220 224
f 219 224 223
f 220 217 221
f 220 221 224
f 221 222 223
f 221 223 224
f 220 219 218
f 220 218 217
g FLOOR_3_BALCONY_E
usemtl balcony
f 225 226 230
f 225 230 229
f 226 227 231
f 226 231 230
f 227 228 232
f 227 232 231
f 228 225 229
f 228 229 232
f 229 230 231
f 229 231 232
f 228 227 226
f 228 226 225
g FLOOR_3_RAIL_W
usemtl railing
f 233 234 238
f 233 238 237
f 234 235 239
f 234 239 238
f 235 236 240
f 235 240 239
f 236 233 237
f 236 237 240
f 237 238 239
f 237 239 240
f 236 235 234
f 236 234 233
g FLOOR_3_RAIL_E
usemtl railing
f 241 242 246
f 241 246 245
f 242 243 247
f 242 247 246
f 243 244 248
f 243 248 247
f 244 241 245
f 244 245 248
f 245 246 247
f 245 247 248
f 244 243 242
f 244 242 241
g FLOOR_4_WEST_WING
usemtl facade
f 249 250 254
f 249 254 253
f 250 251 255
f 250 255 254
f 251 252 256
f 251 256 255
f 252 249 253
f 252 253 256
f 253 254 255
f 253 255 256
f 252 251 250
f 252 250 249
g FLOOR_4_EAST_WING
usemtl facade
f 257 258 262
f 257 262 261
f 258 259 263
f 258 263 262
f 259 260 264
f 259 264 263
f 260 257 261
f 260 261 264
f 261 262 263
f 261 263 264
f 260 259 258
f 260 258 257
g FLOOR_4_CORE
usemtl core
f 265 266 270
f 265 270 269
f 266 267 271
f 266 271 270
f 267 268 272
f 267 272 271
f 268 265 269
f 268 269 272
f 269 270 271
f 269 271 272
f 268 267 266
f 268 266 265
g FLOOR_4_SLAB_W
usemtl slab
f 273 274 278
f 273 278 277
f 274 275 279
f 274 279 278
f 275 276 280
f 275 280 279
f 276 273 277
f 276 277 280
f 277 278 279
f 277 279 280
f 276 275 274
f 276 274 273
g FLOOR_4_SLAB_E
usemtl slab
f 281 282 286
f 281 286 285
f 282 283 287
f 282 287 286
f 283 284 288
f 283 288 287
f 284 281 285
f 284 285 288
f 285 286 287
f 285 287 288
f 284 283 282
f 284 282 281
g FLOOR_4_BALCONY_W
usemtl balcony
f 289 290 294
f 289 294 293
f 290 291 295
f 290 295 294
f 291 292 296
f 291 296 295
f 292 289 293
f 292 293 296
f 293 294 295
f 293 295 296
f 292 291 290
f 292 290 289
g FLOOR_4_BALCONY_E
usemtl balcony
f 297 298 302
f 297 302 301
f 298 299 303
f 298 303 302
f 299 300 304
f 299 304 303
f 300 297 301
f 300 301 304
f 301 302 303
f 301 303 304
f 300 299 298
f 300 298 297
g FLOOR_4_RAIL_W
usemtl railing
f 305 306 310
f 305 310 309
f 306 307 311
f 306 311 310
f 307 308 312
f 307 312 311
f 308 305 309
f 308 309 312
f 309 310 311
f 309 311 312
f 308 307 306
f 308 306 305
g FLOOR_4_RAIL_E
usemtl railing
f 313 314 318
f 313 318 317
f 314 315 319
f 314 319 318
f 315 316 320
f 315 320 319
f 316 313 317
f 316 317 320
f 317 318 319
f 317 319 320
f 316 315 314
f 316 314 313
g FLOOR_5_WEST_WING
usemtl facade
f 321 322 326
f 321 326 325
f 322 323 327
f 322 327 326
f 323 324 328
f 323 328 327
f 324 321 325
f 324 325 328
f 325 326 327
f 325 327 328
f 324 323 322
f 324 322 321
g FLOOR_5_EAST_WING
usemtl facade
f 329 330 334
f 329 334 333
f 330 331 335
f 330 335 334
f 331 332 336
f 331 336 335
f 332 329 333
f 332 333 336
f 333 334 335
f 333 335 336
f 332 331 330
f 332 330 329
g FLOOR_5_CORE
usemtl core
f 337 338 342
f 337 342 341
f 338 339 343
f 338 343 342
f 339 340 344
f 339 344 343
f 340 337 341
f 340 341 344
f 341 342 343
f 341 343 344
f 340 339 338
f 340 338 337
g FLOOR_5_SLAB_W
usemtl slab
f 345 346 350
f 345 350 349
f 346 347 351
f 346 351 350
f 347 348 352
f 347 352 351
f 348 345 349
f 348 349 352
f 349 350 351
f 349 351 352
f 348 347 346
f 348 346 345
g FLOOR_5_SLAB_E
usemtl slab
f 353 354 358
f 353 358 357
f 354 355 359
f 354 359 358
f 355 356 360
f 355 360 359
f 356 353 357
f 356 357 360
f 357 358 359
f 357 359 360
f 356 355 354
f 356 354 353
g FLOOR_5_BALCONY_W
usemtl balcony
f 361 362 366
f 361 366 365
f 362 363 367
f 362 367 366
f 363 364 368
f 363 368 367
f 364 361 365
f 364 365 368
f 365 366 367
f 365 367 368
f 364 363 362
f 364 362 361
g FLOOR_5_BALCONY_E
usemtl balcony
f 369 370 374
f 369 374 373
f 370 371 375
f 370 375 374
f 371 372 376
f 371 376 375
f 372 369 373
f 372 373 376
f 373 374 375
f 373 375 376
f 372 371 370
f 372 370 369
g FLOOR_5_RAIL_W
usemtl railing
f 377 378 382
f 377 382 381
f 378 379 383
f 378 383 382
f 379 380 384
f 379 384 383
f 380 377 381
f 380 381 384
f 381 382 383
f 381 383 384
f 380 379 378
f 380 378 377
g FLOOR_5_RAIL_E
usemtl railing
f 385 386 390
f 385 390 389
f 386 387 391
f 386 391 390
f 387 388 392
f 387 392 391
f 388 385 389
f 388 389 392
f 389 390 391
f 389 391 392
f 388 387 386
f 388 386 385
g SHAFT_WALL_W
usemtl core
f 393 394 398
f 393 398 397
f 394 395 399
f 394 399 398
f 395 396 400
f 395 400 399
f 396 393 397
f 396 397 400
f 397 398 399
f 397 399 400
f 396 395 394
f 396 394 393
g SHAFT_WALL_E
usemtl core
f 401 402 406
f 401 406 405
f 402 403 407
f 402 407 406
f 403 404 408
f 403 408 407
f 404 401 405
f 404 405 408
f 405 406 407
f 405 407 408
f 404 403 402
f 404 402 401
g SHAFT_WALL_S
usemtl core
f 409 410 414
f 409 414 413
f 410 411 415
f 410 415 414
f 411 412 416
f 411 416 415
f 412 409 413
f 412 413 416
f 413 414 415
f 413 415 416
f 412 411 410
f 412 410 409
g ROOF_SLAB
usemtl roof
f 417 418 422
f 417 422 421
f 418 419 423
f 418 423 422
f 419 420 424
f 419 424 423
f 420 417 421
f 420 421 424
f 421 422 423
f 421 423 424
f 420 419 418
f 420 418 417
g ROOF_PARAPET
usemtl parapet
f 425 426 430
f 425 430 429
f 426 427 431
f 426 431 430
f 427 428 432
f 427 432 431
f 428 425 429
f 428 429 432
f 429 430 431
f 429 431 432
f 428 427 426
f 428 426 425
g TERRACE_RAIL
usemtl railing
f 433 434 438
f 433 438 437
f 434 435 439
f 434 439 438
f 435 436 440
f 435 440 439
f 436 433 437
f 436 437 440
f 437 438 439
f 437 439 440
f 436 435 434
f 436 434 433
g ENTRANCE_CANOPY
usemtl concrete
f 441 442 446
f 441 446 445
f 442 443 447
f 442 447 446
f 443 444 448
f 443 448 447
f 444 441 445
f 444 445 448
f 445 446 447
f 445 447 448
f 444 443 442
f 444 442 441
g SHOP_1_SIGN
usemtl sign
f 449 450 454
f 449 454 453
f 450 451 455
f 450 455 454
f 451 452 456
f 451 456 455
f 452 449 453
f 452 453 456
f 453 454 455
f 453 455 456
f 452 451 450
f 452 450 449
g SHOP_2_SIGN
usemtl sign
f 457 458 462
f 457 462 461
f 458 459 463
f 458 463 462
f 459 460 464
f 459 464 463
f 460 457 461
f 460 461 464
f 461 462 463
f 461 463 464
f 460 459 458
f 460 458 457
g SHOP_3_SIGN
usemtl sign
f 465 466 470
f 465 470 469
f 466 467 471
f 466 471 470
f 467 468 472
f 467 472 471
f 468 465 469
f 468 469 472
f 469 470 471
f 469 471 472
f 468 467 466
f 468 466 465
