# طرح دوم — تماماً مسکونی
# یکا: متر · Z رو به بالا · مبدأ: گوشهٔ جنوب‌غربیِ زمین
mtllib model.mtl
v 0.0000 0.0000 -0.0500
v 40.5700 0.0000 -0.0500
v 40.5700 13.3700 -0.0500
v 0.0000 13.3700 -0.0500
v 0.0000 0.0000 0.0000
v 40.5700 0.0000 0.0000
v 40.5700 13.3700 0.0000
v 0.0000 13.3700 0.0000
v 0.0000 2.6700 -0.3000
v 40.5550 2.6700 -0.3000
v 40.5550 13.3700 -0.3000
v 0.0000 13.3700 -0.3000
v 0.0000 2.6700 0.0000
v 40.5550 2.6700 0.0000
v 40.5550 13.3700 0.0000
v 0.0000 13.3700 0.0000
v 0.0000 8.2700 0.0000
v 4.2000 8.2700 0.0000
v 4.2000 13.3700 0.0000
v 0.0000 13.3700 0.0000
v 0.0000 8.2700 2.6000
v 4.2000 8.2700 2.6000
v 4.2000 13.3700 2.6000
v 0.0000 13.3700 2.6000
v 0.6000 3.2700 0.0200
v 3.1000 3.2700 0.0200
v 3.1000 8.2700 0.0200
v 0.6000 8.2700 0.0200
v 0.6000 3.2700 0.0500
v 3.1000 3.2700 0.0500
v 3.1000 8.2700 0.0500
v 0.6000 8.2700 0.0500
v 3.2500 3.2700 0.0200
v 5.7500 3.2700 0.0200
v 5.7500 8.2700 0.0200
v 3.2500 8.2700 0.0200
v 3.2500 3.2700 0.0500
v 5.7500 3.2700 0.0500
v 5.7500 8.2700 0.0500
v 3.2500 8.2700 0.0500
v 5.9000 3.2700 0.0200
v 8.4000 3.2700 0.0200
v 8.4000 8.2700 0.0200
v 5.9000 8.2700 0.0200
v 5.9000 3.2700 0.0500
v 8.4000 3.2700 0.0500
v 8.4000 8.2700 0.0500
v 5.9000 8.2700 0.0500
v 8.5500 3.2700 0.0200
v 11.0500 3.2700 0.0200
v 11.0500 8.2700 0.0200
v 8.5500 8.2700 0.0200
v 8.5500 3.2700 0.0500
v 11.0500 3.2700 0.0500
v 11.0500 8.2700 0.0500
v 8.5500 8.2700 0.0500
v 11.2000 3.2700 0.0200
v 13.7000 3.2700 0.0200
v 13.7000 8.2700 0.0200
v 11.2000 8.2700 0.0200
v 11.2000 3.2700 0.0500
v 13.7000 3.2700 0.0500
v 13.7000 8.2700 0.0500
v 11.2000 8.2700 0.0500
v 13.8500 3.2700 0.0200
v 16.3500 3.2700 0.0200
v 16.3500 8.2700 0.0200
v 13.8500 8.2700 0.0200
v 13.8500 3.2700 0.0500
v 16.3500 3.2700 0.0500
v 16.3500 8.2700 0.0500
v 13.8500 8.2700 0.0500
v 16.5000 3.2700 0.0200
v 19.0000 3.2700 0.0200
v 19.0000 8.2700 0.0200
v 16.5000 8.2700 0.0200
v 16.5000 3.2700 0.0500
v 19.0000 3.2700 0.0500
v 19.0000 8.2700 0.0500
v 16.5000 8.2700 0.0500
v 19.1500 3.2700 0.0200
v 21.6500 3.2700 0.0200
v 21.6500 8.2700 0.0200
v 19.1500 8.2700 0.0200
v 19.1500 3.2700 0.0500
v 21.6500 3.2700 0.0500
v 21.6500 8.2700 0.0500
v 19.1500 8.2700 0.0500
v 21.8000 3.2700 0.0200
v 24.3000 3.2700 0.0200
v 24.3000 8.2700 0.0200
v 21.8000 8.2700 0.0200
v 21.8000 3.2700 0.0500
v 24.3000 3.2700 0.0500
v 24.3000 8.2700 0.0500
v 21.8000 8.2700 0.0500
v 24.4500 3.2700 0.0200
v 26.9500 3.2700 0.0200
v 26.9500 8.2700 0.0200
v 24.4500 8.2700 0.0200
v 24.4500 3.2700 0.0500
v 26.9500 3.2700 0.0500
v 26.9500 8.2700 0.0500
v 24.4500 8.2700 0.0500
v 27.1000 3.2700 0.0200
v 29.6000 3.2700 0.0200
v 29.6000 8.2700 0.0200
v 27.1000 8.2700 0.0200
v 27.1000 3.2700 0.0500
v 29.6000 3.2700 0.0500
v 29.6000 8.2700 0.0500
v 27.1000 8.2700 0.0500
v 29.7500 3.2700 0.0200
v 32.2500 3.2700 0.0200
v 32.2500 8.2700 0.0200
v 29.7500 8.2700 0.0200
v 29.7500 3.2700 0.0500
v 32.2500 3.2700 0.0500
v 32.2500 8.2700 0.0500
v 29.7500 8.2700 0.0500
v 32.4000 3.2700 0.0200
v 34.9000 3.2700 0.0200
v 34.9000 8.2700 0.0200
v 32.4000 8.2700 0.0200
v 32.4000 3.2700 0.0500
v 34.9000 3.2700 0.0500
v 34.9000 8.2700 0.0500
v 32.4000 8.2700 0.0500
v 1.8000 9.9700 0.0000
v 2.2000 9.9700 0.0000
v 2.2000 10.3700 0.0000
v 1.8000 10.3700 0.0000
v 1.8000 9.9700 2.6000
v 2.2000 9.9700 2.6000
v 2.2000 10.3700 2.6000
v 1.8000 10.3700 2.6000
v 9.1110 9.9700 0.0000
v 9.5110 9.9700 0.0000
v 9.5110 10.3700 0.0000
v 9.1110 10.3700 0.0000
v 9.1110 9.9700 2.6000
v 9.5110 9.9700 2.6000
v 9.5110 10.3700 2.6000
v 9.1110 10.3700 2.6000
v 16.4220 9.9700 0.0000
v 16.8220 9.9700 0.0000
v 16.8220 10.3700 0.0000
v 16.4220 10.3700 0.0000
v 16.4220 9.9700 2.6000
v 16.8220 9.9700 2.6000
v 16.8220 10.3700 2.6000
v 16.4220 10.3700 2.6000
v 23.7330 9.9700 0.0000
v 24.1330 9.9700 0.0000
v 24.1330 10.3700 0.0000
v 23.7330 10.3700 0.0000
v 23.7330 9.9700 2.6000
v 24.1330 9.9700 2.6000
v 24.1330 10.3700 2.6000
v 23.7330 10.3700 2.6000
v 31.0440 9.9700 0.0000
v 31.4440 9.9700 0.0000
v 31.4440 10.3700 0.0000
v 31.0440 10.3700 0.0000
v 31.0440 9.9700 2.6000
v 31.4440 9.9700 2.6000
v 31.4440 10.3700 2.6000
v 31.0440 10.3700 2.6000
v 38.3550 9.9700 0.0000
v 38.7550 9.9700 0.0000
v 38.7550 10.3700 0.0000
v 38.3550 10.3700 0.0000
v 38.3550 9.9700 2.6000
v 38.7550 9.9700 2.6000
v 38.7550 10.3700 2.6000
v 38.3550 10.3700 2.6000
v 0.0000 2.6700 2.3000
v 40.5550 2.6700 2.3000
v 40.5550 13.3700 2.3000
v 0.0000 13.3700 2.3000
v 0.0000 2.6700 2.6000
v 40.5550 2.6700 2.6000
v 40.5550 13.3700 2.6000
v 0.0000 13.3700 2.6000
v 0.0000 2.6700 2.6000
v 0.3000 2.6700 2.6000
v 0.3000 13.3700 2.6000
v 0.0000 13.3700 2.6000
v 0.0000 2.6700 5.5000
v 0.3000 2.6700 5.5000
v 0.3000 13.3700 5.5000
v 0.0000 13.3700 5.5000
v 40.2550 2.6700 2.6000
v 40.5550 2.6700 2.6000
v 40.5550 13.3700 2.6000
v 40.2550 13.3700 2.6000
v 40.2550 2.6700 5.5000
v 40.5550 2.6700 5.5000
v 40.5550 13.3700 5.5000
v 40.2550 13.3700 5.5000
v 0.0000 4.8700 2.6000
v 40.5550 4.8700 2.6000
v 40.5550 5.1200 2.6000
v 0.0000 5.1200 2.6000
v 0.0000 4.8700 5.5000
v 40.5550 4.8700 5.5000
v 40.5550 5.1200 5.5000
v 0.0000 5.1200 5.5000
v 0.0000 13.0700 2.6000
v 40.5550 13.0700 2.6000
v 40.5550 13.3700 2.6000
v 0.0000 13.3700 2.6000
v 0.0000 13.0700 5.5000
v 40.5550 13.0700 5.5000
v 40.5550 13.3700 5.5000
v 0.0000 13.3700 5.5000
v 0.0000 8.2700 2.6000
v 4.2000 8.2700 2.6000
v 4.2000 13.3700 2.6000
v 0.0000 13.3700 2.6000
v 0.0000 8.2700 5.5000
v 4.2000 8.2700 5.5000
v 4.2000 13.3700 5.5000
v 0.0000 13.3700 5.5000
v 4.1000 4.8700 2.6000
v 4.3000 4.8700 2.6000
v 4.3000 12.0700 2.6000
v 4.1000 12.0700 2.6000
v 4.1000 4.8700 5.5000
v 4.3000 4.8700 5.5000
v 4.3000 12.0700 5.5000
v 4.1000 12.0700 5.5000
v 4.2000 2.6700 2.6000
v 13.2890 2.6700 2.6000
v 13.2890 4.8700 2.6000
v 4.2000 4.8700 2.6000
v 4.2000 2.6700 2.7200
v 13.2890 2.6700 2.7200
v 13.2890 4.8700 2.7200
v 4.2000 4.8700 2.7200
v 4.2000 2.6700 2.6000
v 13.2890 2.6700 2.6000
v 13.2890 2.7900 2.6000
v 4.2000 2.7900 2.6000
v 4.2000 2.6700 3.7000
v 13.2890 2.6700 3.7000
v 13.2890 2.7900 3.7000
v 4.2000 2.7900 3.7000
v 4.2000 2.6700 2.6000
v 4.3200 2.6700 2.6000
v 4.3200 4.8700 2.6000
v 4.2000 4.8700 2.6000
v 4.2000 2.6700 3.7000
v 4.3200 2.6700 3.7000
v 4.3200 4.8700 3.7000
v 4.2000 4.8700 3.7000
v 13.1690 2.6700 2.6000
v 13.2890 2.6700 2.6000
v 13.2890 4.8700 2.6000
v 13.1690 4.8700 2.6000
v 13.1690 2.6700 3.7000
v 13.2890 2.6700 3.7000
v 13.2890 4.8700 3.7000
v 13.1690 4.8700 3.7000
v 13.1890 4.8700 2.6000
v 13.3890 4.8700 2.6000
v 13.3890 12.0700 2.6000
v 13.1890 12.0700 2.6000
v 13.1890 4.8700 5.5000
v 13.3890 4.8700 5.5000
v 13.3890 12.0700 5.5000
v 13.1890 12.0700 5.5000
v 13.2890 2.6700 2.6000
v 22.3770 2.6700 2.6000
v 22.3770 4.8700 2.6000
v 13.2890 4.8700 2.6000
v 13.2890 2.6700 2.7200
v 22.3770 2.6700 2.7200
v 22.3770 4.8700 2.7200
v 13.2890 4.8700 2.7200
v 13.2890 2.6700 2.6000
v 22.3770 2.6700 2.6000
v 22.3770 2.7900 2.6000
v 13.2890 2.7900 2.6000
v 13.2890 2.6700 3.7000
v 22.3770 2.6700 3.7000
v 22.3770 2.7900 3.7000
v 13.2890 2.7900 3.7000
v 13.2890 2.6700 2.6000
v 13.4090 2.6700 2.6000
v 13.4090 4.8700 2.6000
v 13.2890 4.8700 2.6000
v 13.2890 2.6700 3.7000
v 13.4090 2.6700 3.7000
v 13.4090 4.8700 3.7000
v 13.2890 4.8700 3.7000
v 22.2570 2.6700 2.6000
v 22.3770 2.6700 2.6000
v 22.3770 4.8700 2.6000
v 22.2570 4.8700 2.6000
v 22.2570 2.6700 3.7000
v 22.3770 2.6700 3.7000
v 22.3770 4.8700 3.7000
v 22.2570 4.8700 3.7000
v 22.2770 4.8700 2.6000
v 22.4770 4.8700 2.6000
v 22.4770 12.0700 2.6000
v 22.2770 12.0700 2.6000
v 22.2770 4.8700 5.5000
v 22.4770 4.8700 5.5000
v 22.4770 12.0700 5.5000
v 22.2770 12.0700 5.5000
v 22.3770 2.6700 2.6000
v 31.4660 2.6700 2.6000
v 31.4660 4.8700 2.6000
v 22.3770 4.8700 2.6000
v 22.3770 2.6700 2.7200
v 31.4660 2.6700 2.7200
v 31.4660 4.8700 2.7200
v 22.3770 4.8700 2.7200
v 22.3770 2.6700 2.6000
v 31.4660 2.6700 2.6000
v 31.4660 2.7900 2.6000
v 22.3770 2.7900 2.6000
v 22.3770 2.6700 3.7000
v 31.4660 2.6700 3.7000
v 31.4660 2.7900 3.7000
v 22.3770 2.7900 3.7000
v 22.3770 2.6700 2.6000
v 22.4970 2.6700 2.6000
v 22.4970 4.8700 2.6000
v 22.3770 4.8700 2.6000
v 22.3770 2.6700 3.7000
v 22.4970 2.6700 3.7000
v 22.4970 4.8700 3.7000
v 22.3770 4.8700 3.7000
v 31.3460 2.6700 2.6000
v 31.4660 2.6700 2.6000
v 31.4660 4.8700 2.6000
v 31.3460 4.8700 2.6000
v 31.3460 2.6700 3.7000
v 31.4660 2.6700 3.7000
v 31.4660 4.8700 3.7000
v 31.3460 4.8700 3.7000
v 31.3660 4.8700 2.6000
v 31.5660 4.8700 2.6000
v 31.5660 12.0700 2.6000
v 31.3660 12.0700 2.6000
v 31.3660 4.8700 5.5000
v 31.5660 4.8700 5.5000
v 31.5660 12.0700 5.5000
v 31.3660 12.0700 5.5000
v 31.4660 2.6700 2.6000
v 40.5550 2.6700 2.6000
v 40.5550 4.8700 2.6000
v 31.4660 4.8700 2.6000
v 31.4660 2.6700 2.7200
v 40.5550 2.6700 2.7200
v 40.5550 4.8700 2.7200
v 31.4660 4.8700 2.7200
v 31.4660 2.6700 2.6000
v 40.5550 2.6700 2.6000
v 40.5550 2.7900 2.6000
v 31.4660 2.7900 2.6000
v 31.4660 2.6700 3.7000
v 40.5550 2.6700 3.7000
v 40.5550 2.7900 3.7000
v 31.4660 2.7900 3.7000
v 31.4660 2.6700 2.6000
v 31.5860 2.6700 2.6000
v 31.5860 4.8700 2.6000
v 31.4660 4.8700 2.6000
v 31.4660 2.6700 3.7000
v 31.5860 2.6700 3.7000
v 31.5860 4.8700 3.7000
v 31.4660 4.8700 3.7000
v 40.4350 2.6700 2.6000
v 40.5550 2.6700 2.6000
v 40.5550 4.8700 2.6000
v 40.4350 4.8700 2.6000
v 40.4350 2.6700 3.7000
v 40.5550 2.6700 3.7000
v 40.5550 4.8700 3.7000
v 40.4350 4.8700 3.7000
v 0.0000 2.6700 5.2000
v 40.5550 2.6700 5.2000
v 40.5550 13.3700 5.2000
v 0.0000 13.3700 5.2000
v 0.0000 2.6700 5.5000
v 40.5550 2.6700 5.5000
v 40.5550 13.3700 5.5000
v 0.0000 13.3700 5.5000
v 0.0000 2.6700 5.5000
v 0.3000 2.6700 5.5000
v 0.3000 13.3700 5.5000
v 0.0000 13.3700 5.5000
v 0.0000 2.6700 8.4000
v 0.3000 2.6700 8.4000
v 0.3000 13.3700 8.4000
v 0.0000 13.3700 8.4000
v 40.2550 2.6700 5.5000
v 40.5550 2.6700 5.5000
v 40.5550 13.3700 5.5000
v 40.2550 13.3700 5.5000
v 40.2550 2.6700 8.4000
v 40.5550 2.6700 8.4000
v 40.5550 13.3700 8.4000
v 40.2550 13.3700 8.4000
v 0.0000 4.8700 5.5000
v 40.5550 4.8700 5.5000
v 40.5550 5.1200 5.5000
v 0.0000 5.1200 5.5000
v 0.0000 4.8700 8.4000
v 40.5550 4.8700 8.4000
v 40.5550 5.1200 8.4000
v 0.0000 5.1200 8.4000
v 0.0000 13.0700 5.5000
v 40.5550 13.0700 5.5000
v 40.5550 13.3700 5.5000
v 0.0000 13.3700 5.5000
v 0.0000 13.0700 8.4000
v 40.5550 13.0700 8.4000
v 40.5550 13.3700 8.4000
v 0.0000 13.3700 8.4000
v 0.0000 8.2700 5.5000
v 4.2000 8.2700 5.5000
v 4.2000 13.3700 5.5000
v 0.0000 13.3700 5.5000
v 0.0000 8.2700 8.4000
v 4.2000 8.2700 8.4000
v 4.2000 13.3700 8.4000
v 0.0000 13.3700 8.4000
v 4.1000 4.8700 5.5000
v 4.3000 4.8700 5.5000
v 4.3000 12.0700 5.5000
v 4.1000 12.0700 5.5000
v 4.1000 4.8700 8.4000
v 4.3000 4.8700 8.4000
v 4.3000 12.0700 8.4000
v 4.1000 12.0700 8.4000
v 4.2000 2.6700 5.5000
v 13.2890 2.6700 5.5000
v 13.2890 4.8700 5.5000
v 4.2000 4.8700 5.5000
v 4.2000 2.6700 5.6200
v 13.2890 2.6700 5.6200
v 13.2890 4.8700 5.6200
v 4.2000 4.8700 5.6200
v 4.2000 2.6700 5.5000
v 13.2890 2.6700 5.5000
v 13.2890 2.7900 5.5000
v 4.2000 2.7900 5.5000
v 4.2000 2.6700 6.6000
v 13.2890 2.6700 6.6000
v 13.2890 2.7900 6.6000
v 4.2000 2.7900 6.6000
v 4.2000 2.6700 5.5000
v 4.3200 2.6700 5.5000
v 4.3200 4.8700 5.5000
v 4.2000 4.8700 5.5000
v 4.2000 2.6700 6.6000
v 4.3200 2.6700 6.6000
v 4.3200 4.8700 6.6000
v 4.2000 4.8700 6.6000
v 13.1690 2.6700 5.5000
v 13.2890 2.6700 5.5000
v 13.2890 4.8700 5.5000
v 13.1690 4.8700 5.5000
v 13.1690 2.6700 6.6000
v 13.2890 2.6700 6.6000
v 13.2890 4.8700 6.6000
v 13.1690 4.8700 6.6000
v 13.1890 4.8700 5.5000
v 13.3890 4.8700 5.5000
v 13.3890 12.0700 5.5000
v 13.1890 12.0700 5.5000
v 13.1890 4.8700 8.4000
v 13.3890 4.8700 8.4000
v 13.3890 12.0700 8.4000
v 13.1890 12.0700 8.4000
v 13.2890 2.6700 5.5000
v 22.3770 2.6700 5.5000
v 22.3770 4.8700 5.5000
v 13.2890 4.8700 5.5000
v 13.2890 2.6700 5.6200
v 22.3770 2.6700 5.6200
v 22.3770 4.8700 5.6200
v 13.2890 4.8700 5.6200
v 13.2890 2.6700 5.5000
v 22.3770 2.6700 5.5000
v 22.3770 2.7900 5.5000
v 13.2890 2.7900 5.5000
v 13.2890 2.6700 6.6000
v 22.3770 2.6700 6.6000
v 22.3770 2.7900 6.6000
v 13.2890 2.7900 6.6000
v 13.2890 2.6700 5.5000
v 13.4090 2.6700 5.5000
v 13.4090 4.8700 5.5000
v 13.2890 4.8700 5.5000
v 13.2890 2.6700 6.6000
v 13.4090 2.6700 6.6000
v 13.4090 4.8700 6.6000
v 13.2890 4.8700 6.6000
v 22.2570 2.6700 5.5000
v 22.3770 2.6700 5.5000
v 22.3770 4.8700 5.5000
v 22.2570 4.8700 5.5000
v 22.2570 2.6700 6.6000
v 22.3770 2.6700 6.6000
v 22.3770 4.8700 6.6000
v 22.2570 4.8700 6.6000
v 22.2770 4.8700 5.5000
v 22.4770 4.8700 5.5000
v 22.4770 12.0700 5.5000
v 22.2770 12.0700 5.5000
v 22.2770 4.8700 8.4000
v 22.4770 4.8700 8.4000
v 22.4770 12.0700 8.4000
v 22.2770 12.0700 8.4000
v 22.3770 2.6700 5.5000
v 31.4660 2.6700 5.5000
v 31.4660 4.8700 5.5000
v 22.3770 4.8700 5.5000
v 22.3770 2.6700 5.6200
v 31.4660 2.6700 5.6200
v 31.4660 4.8700 5.6200
v 22.3770 4.8700 5.6200
v 22.3770 2.6700 5.5000
v 31.4660 2.6700 5.5000
v 31.4660 2.7900 5.5000
v 22.3770 2.7900 5.5000
v 22.3770 2.6700 6.6000
v 31.4660 2.6700 6.6000
v 31.4660 2.7900 6.6000
v 22.3770 2.7900 6.6000
v 22.3770 2.6700 5.5000
v 22.4970 2.6700 5.5000
v 22.4970 4.8700 5.5000
v 22.3770 4.8700 5.5000
v 22.3770 2.6700 6.6000
v 22.4970 2.6700 6.6000
v 22.4970 4.8700 6.6000
v 22.3770 4.8700 6.6000
v 31.3460 2.6700 5.5000
v 31.4660 2.6700 5.5000
v 31.4660 4.8700 5.5000
v 31.3460 4.8700 5.5000
v 31.3460 2.6700 6.6000
v 31.4660 2.6700 6.6000
v 31.4660 4.8700 6.6000
v 31.3460 4.8700 6.6000
v 31.3660 4.8700 5.5000
v 31.5660 4.8700 5.5000
v 31.5660 12.0700 5.5000
v 31.3660 12.0700 5.5000
v 31.3660 4.8700 8.4000
v 31.5660 4.8700 8.4000
v 31.5660 12.0700 8.4000
v 31.3660 12.0700 8.4000
v 31.4660 2.6700 5.5000
v 40.5550 2.6700 5.5000
v 40.5550 4.8700 5.5000
v 31.4660 4.8700 5.5000
v 31.4660 2.6700 5.6200
v 40.5550 2.6700 5.6200
v 40.5550 4.8700 5.6200
v 31.4660 4.8700 5.6200
v 31.4660 2.6700 5.5000
v 40.5550 2.6700 5.5000
v 40.5550 2.7900 5.5000
v 31.4660 2.7900 5.5000
v 31.4660 2.6700 6.6000
v 40.5550 2.6700 6.6000
v 40.5550 2.7900 6.6000
v 31.4660 2.7900 6.6000
v 31.4660 2.6700 5.5000
v 31.5860 2.6700 5.5000
v 31.5860 4.8700 5.5000
v 31.4660 4.8700 5.5000
v 31.4660 2.6700 6.6000
v 31.5860 2.6700 6.6000
v 31.5860 4.8700 6.6000
v 31.4660 4.8700 6.6000
v 40.4350 2.6700 5.5000
v 40.5550 2.6700 5.5000
v 40.5550 4.8700 5.5000
v 40.4350 4.8700 5.5000
v 40.4350 2.6700 6.6000
v 40.5550 2.6700 6.6000
v 40.5550 4.8700 6.6000
v 40.4350 4.8700 6.6000
v 0.0000 2.6700 8.1000
v 40.5550 2.6700 8.1000
v 40.5550 13.3700 8.1000
v 0.0000 13.3700 8.1000
v 0.0000 2.6700 8.4000
v 40.5550 2.6700 8.4000
v 40.5550 13.3700 8.4000
v 0.0000 13.3700 8.4000
v 0.0000 2.6700 8.4000
v 0.3000 2.6700 8.4000
v 0.3000 13.3700 8.4000
v 0.0000 13.3700 8.4000
v 0.0000 2.6700 11.3000
v 0.3000 2.6700 11.3000
v 0.3000 13.3700 11.3000
v 0.0000 13.3700 11.3000
v 40.2550 2.6700 8.4000
v 40.5550 2.6700 8.4000
v 40.5550 13.3700 8.4000
v 40.2550 13.3700 8.4000
v 40.2550 2.6700 11.3000
v 40.5550 2.6700 11.3000
v 40.5550 13.3700 11.3000
v 40.2550 13.3700 11.3000
v 0.0000 4.8700 8.4000
v 40.5550 4.8700 8.4000
v 40.5550 5.1200 8.4000
v 0.0000 5.1200 8.4000
v 0.0000 4.8700 11.3000
v 40.5550 4.8700 11.3000
v 40.5550 5.1200 11.3000
v 0.0000 5.1200 11.3000
v 0.0000 13.0700 8.4000
v 40.5550 13.0700 8.4000
v 40.5550 13.3700 8.4000
v 0.0000 13.3700 8.4000
v 0.0000 13.0700 11.3000
v 40.5550 13.0700 11.3000
v 40.5550 13.3700 11.3000
v 0.0000 13.3700 11.3000
v 0.0000 8.2700 8.4000
v 4.2000 8.2700 8.4000
v 4.2000 13.3700 8.4000
v 0.0000 13.3700 8.4000
v 0.0000 8.2700 11.3000
v 4.2000 8.2700 11.3000
v 4.2000 13.3700 11.3000
v 0.0000 13.3700 11.3000
v 4.1000 4.8700 8.4000
v 4.3000 4.8700 8.4000
v 4.3000 12.0700 8.4000
v 4.1000 12.0700 8.4000
v 4.1000 4.8700 11.3000
v 4.3000 4.8700 11.3000
v 4.3000 12.0700 11.3000
v 4.1000 12.0700 11.3000
v 4.2000 2.6700 8.4000
v 13.2890 2.6700 8.4000
v 13.2890 4.8700 8.4000
v 4.2000 4.8700 8.4000
v 4.2000 2.6700 8.5200
v 13.2890 2.6700 8.5200
v 13.2890 4.8700 8.5200
v 4.2000 4.8700 8.5200
v 4.2000 2.6700 8.4000
v 13.2890 2.6700 8.4000
v 13.2890 2.7900 8.4000
v 4.2000 2.7900 8.4000
v 4.2000 2.6700 9.5000
v 13.2890 2.6700 9.5000
v 13.2890 2.7900 9.5000
v 4.2000 2.7900 9.5000
v 4.2000 2.6700 8.4000
v 4.3200 2.6700 8.4000
v 4.3200 4.8700 8.4000
v 4.2000 4.8700 8.4000
v 4.2000 2.6700 9.5000
v 4.3200 2.6700 9.5000
v 4.3200 4.8700 9.5000
v 4.2000 4.8700 9.5000
v 13.1690 2.6700 8.4000
v 13.2890 2.6700 8.4000
v 13.2890 4.8700 8.4000
v 13.1690 4.8700 8.4000
v 13.1690 2.6700 9.5000
v 13.2890 2.6700 9.5000
v 13.2890 4.8700 9.5000
v 13.1690 4.8700 9.5000
v 13.1890 4.8700 8.4000
v 13.3890 4.8700 8.4000
v 13.3890 12.0700 8.4000
v 13.1890 12.0700 8.4000
v 13.1890 4.8700 11.3000
v 13.3890 4.8700 11.3000
v 13.3890 12.0700 11.3000
v 13.1890 12.0700 11.3000
v 13.2890 2.6700 8.4000
v 22.3770 2.6700 8.4000
v 22.3770 4.8700 8.4000
v 13.2890 4.8700 8.4000
v 13.2890 2.6700 8.5200
v 22.3770 2.6700 8.5200
v 22.3770 4.8700 8.5200
v 13.2890 4.8700 8.5200
v 13.2890 2.6700 8.4000
v 22.3770 2.6700 8.4000
v 22.3770 2.7900 8.4000
v 13.2890 2.7900 8.4000
v 13.2890 2.6700 9.5000
v 22.3770 2.6700 9.5000
v 22.3770 2.7900 9.5000
v 13.2890 2.7900 9.5000
v 13.2890 2.6700 8.4000
v 13.4090 2.6700 8.4000
v 13.4090 4.8700 8.4000
v 13.2890 4.8700 8.4000
v 13.2890 2.6700 9.5000
v 13.4090 2.6700 9.5000
v 13.4090 4.8700 9.5000
v 13.2890 4.8700 9.5000
v 22.2570 2.6700 8.4000
v 22.3770 2.6700 8.4000
v 22.3770 4.8700 8.4000
v 22.2570 4.8700 8.4000
v 22.2570 2.6700 9.5000
v 22.3770 2.6700 9.5000
v 22.3770 4.8700 9.5000
v 22.2570 4.8700 9.5000
v 22.2770 4.8700 8.4000
v 22.4770 4.8700 8.4000
v 22.4770 12.0700 8.4000
v 22.2770 12.0700 8.4000
v 22.2770 4.8700 11.3000
v 22.4770 4.8700 11.3000
v 22.4770 12.0700 11.3000
v 22.2770 12.0700 11.3000
v 22.3770 2.6700 8.4000
v 31.4660 2.6700 8.4000
v 31.4660 4.8700 8.4000
v 22.3770 4.8700 8.4000
v 22.3770 2.6700 8.5200
v 31.4660 2.6700 8.5200
v 31.4660 4.8700 8.5200
v 22.3770 4.8700 8.5200
v 22.3770 2.6700 8.4000
v 31.4660 2.6700 8.4000
v 31.4660 2.7900 8.4000
v 22.3770 2.7900 8.4000
v 22.3770 2.6700 9.5000
v 31.4660 2.6700 9.5000
v 31.4660 2.7900 9.5000
v 22.3770 2.7900 9.5000
v 22.3770 2.6700 8.4000
v 22.4970 2.6700 8.4000
v 22.4970 4.8700 8.4000
v 22.3770 4.8700 8.4000
v 22.3770 2.6700 9.5000
v 22.4970 2.6700 9.5000
v 22.4970 4.8700 9.5000
v 22.3770 4.8700 9.5000
v 31.3460 2.6700 8.4000
v 31.4660 2.6700 8.4000
v 31.4660 4.8700 8.4000
v 31.3460 4.8700 8.4000
v 31.3460 2.6700 9.5000
v 31.4660 2.6700 9.5000
v 31.4660 4.8700 9.5000
v 31.3460 4.8700 9.5000
v 31.3660 4.8700 8.4000
v 31.5660 4.8700 8.4000
v 31.5660 12.0700 8.4000
v 31.3660 12.0700 8.4000
v 31.3660 4.8700 11.3000
v 31.5660 4.8700 11.3000
v 31.5660 12.0700 11.3000
v 31.3660 12.0700 11.3000
v 31.4660 2.6700 8.4000
v 40.5550 2.6700 8.4000
v 40.5550 4.8700 8.4000
v 31.4660 4.8700 8.4000
v 31.4660 2.6700 8.5200
v 40.5550 2.6700 8.5200
v 40.5550 4.8700 8.5200
v 31.4660 4.8700 8.5200
v 31.4660 2.6700 8.4000
v 40.5550 2.6700 8.4000
v 40.5550 2.7900 8.4000
v 31.4660 2.7900 8.4000
v 31.4660 2.6700 9.5000
v 40.5550 2.6700 9.5000
v 40.5550 2.7900 9.5000
v 31.4660 2.7900 9.5000
v 31.4660 2.6700 8.4000
v 31.5860 2.6700 8.4000
v 31.5860 4.8700 8.4000
v 31.4660 4.8700 8.4000
v 31.4660 2.6700 9.5000
v 31.5860 2.6700 9.5000
v 31.5860 4.8700 9.5000
v 31.4660 4.8700 9.5000
v 40.4350 2.6700 8.4000
v 40.5550 2.6700 8.4000
v 40.5550 4.8700 8.4000
v 40.4350 4.8700 8.4000
v 40.4350 2.6700 9.5000
v 40.5550 2.6700 9.5000
v 40.5550 4.8700 9.5000
v 40.4350 4.8700 9.5000
v 0.0000 2.6700 11.0000
v 40.5550 2.6700 11.0000
v 40.5550 13.3700 11.0000
v 0.0000 13.3700 11.0000
v 0.0000 2.6700 11.3000
v 40.5550 2.6700 11.3000
v 40.5550 13.3700 11.3000
v 0.0000 13.3700 11.3000
v 0.0000 2.6700 11.3000
v 0.2500 2.6700 11.3000
v 0.2500 13.3700 11.3000
v 0.0000 13.3700 11.3000
v 0.0000 2.6700 12.3000
v 0.2500 2.6700 12.3000
v 0.2500 13.3700 12.3000
v 0.0000 13.3700 12.3000
v 40.3050 2.6700 11.3000
v 40.5550 2.6700 11.3000
v 40.5550 13.3700 11.3000
v 40.3050 13.3700 11.3000
v 40.3050 2.6700 12.3000
v 40.5550 2.6700 12.3000
v 40.5550 13.3700 12.3000
v 40.3050 13.3700 12.3000
v 0.0000 2.6700 11.3000
v 40.5550 2.6700 11.3000
v 40.5550 2.9200 11.3000
v 0.0000 2.9200 11.3000
v 0.0000 2.6700 12.3000
v 40.5550 2.6700 12.3000
v 40.5550 2.9200 12.3000
v 0.0000 2.9200 12.3000
v 0.0000 13.1200 11.3000
v 40.5550 13.1200 11.3000
v 40.5550 13.3700 11.3000
v 0.0000 13.3700 11.3000
v 0.0000 13.1200 12.3000
v 40.5550 13.1200 12.3000
v 40.5550 13.3700 12.3000
v 0.0000 13.3700 12.3000
v 0.0000 8.2700 11.3000
v 4.2000 8.2700 11.3000
v 4.2000 13.3700 11.3000
v 0.0000 13.3700 11.3000
v 0.0000 8.2700 14.1000
v 4.2000 8.2700 14.1000
v 4.2000 13.3700 14.1000
v 0.0000 13.3700 14.1000
g SITE_PLOT
usemtl site
f 1 2 6
f 1 6 5
f 2 3 7
f 2 7 6
f 3 4 8
f 3 8 7
f 4 1 5
f 4 5 8
f 5 6 7
f 5 7 8
f 4 3 2
f 4 2 1
g BASE_SLAB
usemtl concrete
f 9 10 14
f 9 14 13
f 10 11 15
f 10 15 14
f 11 12 16
f 11 16 15
f 12 9 13
f 12 13 16
f 13 14 15
f 13 15 16
f 12 11 10
f 12 10 9
g BASE_CORE
usemtl core
f 17 18 22
f 17 22 21
f 18 19 23
f 18 23 22
f 19 20 24
f 19 24 23
f 20 17 21
f 20 21 24
f 21 22 23
f 21 23 24
f 20 19 18
f 20 18 17
g PARK_LINE
usemtl parking
f 25 26 30
f 25 30 29
f 26 27 31
f 26 31 30
f 27 28 32
f 27 32 31
f 28 25 29
f 28 29 32
f 29 30 31
f 29 31 32
f 28 27 26
f 28 26 25
f 33 34 38
f 33 38 37
f 34 35 39
f 34 39 38
f 35 36 40
f 35 40 39
f 36 33 37
f 36 37 40
f 37 38 39
f 37 39 40
f 36 35 34
f 36 34 33
f 41 42 46
f 41 46 45
f 42 43 47
f 42 47 46
f 43 44 48
f 43 48 47
f 44 41 45
f 44 45 48
f 45 46 47
f 45 47 48
f 44 43 42
f 44 42 41
f 49 50 54
f 49 54 53
f 50 51 55
f 50 55 54
f 51 52 56
f 51 56 55
f 52 49 53
f 52 53 56
f 53 54 55
f 53 55 56
f 52 51 50
f 52 50 49
f 57 58 62
f 57 62 61
f 58 59 63
f 58 63 62
f 59 60 64
f 59 64 63
f 60 57 61
f 60 61 64
f 61 62 63
f 61 63 64
f 60 59 58
f 60 58 57
f 65 66 70
f 65 70 69
f 66 67 71
f 66 71 70
f 67 68 72
f 67 72 71
f 68 65 69
f 68 69 72
f 69 70 71
f 69 71 72
f 68 67 66
f 68 66 65
f 73 74 78
f 73 78 77
f 74 75 79
f 74 79 78
f 75 76 80
f 75 80 79
f 76 73 77
f 76 77 80
f 77 78 79
f 77 79 80
f 76 75 74
f 76 74 73
f 81 82 86
f 81 86 85
f 82 83 87
f 82 87 86
f 83 84 88
f 83 88 87
f 84 81 85
f 84 85 88
f 85 86 87
f 85 87 88
f 84 83 82
f 84 82 81
f 89 90 94
f 89 94 93
f 90 91 95
f 90 95 94
f 91 92 96
f 91 96 95
f 92 89 93
f 92 93 96
f 93 94 95
f 93 95 96
f 92 91 90
f 92 90 89
f 97 98 102
f 97 102 101
f 98 99 103
f 98 103 102
f 99 100 104
f 99 104 103
f 100 97 101
f 100 101 104
f 101 102 103
f 101 103 104
f 100 99 98
f 100 98 97
f 105 106 110
f 105 110 109
f 106 107 111
f 106 111 110
f 107 108 112
f 107 112 111
f 108 105 109
f 108 109 112
f 109 110 111
f 109 111 112
f 108 107 106
f 108 106 105
f 113 114 118
f 113 118 117
f 114 115 119
f 114 119 118
f 115 116 120
f 115 120 119
f 116 113 117
f 116 117 120
f 117 118 119
f 117 119 120
f 116 115 114
f 116 114 113
f 121 122 126
f 121 126 125
f 122 123 127
f 122 127 126
f 123 124 128
f 123 128 127
f 124 121 125
f 124 125 128
f 125 126 127
f 125 127 128
f 124 123 122
f 124 122 121
g PILOTIS_COL
usemtl concrete
f 129 130 134
f 129 134 133
f 130 131 135
f 130 135 134
f 131 132 136
f 131 136 135
f 132 129 133
f 132 133 136
f 133 134 135
f 133 135 136
f 132 131 130
f 132 130 129
f 137 138 142
f 137 142 141
f 138 139 143
f 138 143 142
f 139 140 144
f 139 144 143
f 140 137 141
f 140 141 144
f 141 142 143
f 141 143 144
f 140 139 138
f 140 138 137
f 145 146 150
f 145 150 149
f 146 147 151
f 146 151 150
f 147 148 152
f 147 152 151
f 148 145 149
f 148 149 152
f 149 150 151
f 149 151 152
f 148 147 146
f 148 146 145
f 153 154 158
f 153 158 157
f 154 155 159
f 154 159 158
f 155 156 160
f 155 160 159
f 156 153 157
f 156 157 160
f 157 158 159
f 157 159 160
f 156 155 154
f 156 154 153
f 161 162 166
f 161 166 165
f 162 163 167
f 162 167 166
f 163 164 168
f 163 168 167
f 164 161 165
f 164 165 168
f 165 166 167
f 165 167 168
f 164 163 162
f 164 162 161
f 169 170 174
f 169 174 173
f 170 171 175
f 170 175 174
f 171 172 176
f 171 176 175
f 172 169 173
f 172 173 176
f 173 174 175
f 173 175 176
f 172 171 170
f 172 170 169
g F1_SLAB
usemtl slab
f 177 178 182
f 177 182 181
f 178 179 183
f 178 183 182
f 179 180 184
f 179 184 183
f 180 177 181
f 180 181 184
f 181 182 183
f 181 183 184
f 180 179 178
f 180 178 177
g F1_WALL_W
usemtl facade
f 185 186 190
f 185 190 189
f 186 187 191
f 186 191 190
f 187 188 192
f 187 192 191
f 188 185 189
f 188 189 192
f 189 190 191
f 189 191 192
f 188 187 186
f 188 186 185
g F1_WALL_E
usemtl facade
f 193 194 198
f 193 198 197
f 194 195 199
f 194 199 198
f 195 196 200
f 195 200 199
f 196 193 197
f 196 197 200
f 197 198 199
f 197 199 200
f 196 195 194
f 196 194 193
g F1_WALL_S
usemtl facade
f 201 202 206
f 201 206 205
f 202 203 207
f 202 207 206
f 203 204 208
f 203 208 207
f 204 201 205
f 204 205 208
f 205 206 207
f 205 207 208
f 204 203 202
f 204 202 201
g F1_WALL_N
usemtl facade
f 209 210 214
f 209 214 213
f 210 211 215
f 210 215 214
f 211 212 216
f 211 216 215
f 212 209 213
f 212 213 216
f 213 214 215
f 213 215 216
f 212 211 210
f 212 210 209
g F1_CORE
usemtl core
f 217 218 222
f 217 222 221
f 218 219 223
f 218 223 222
f 219 220 224
f 219 224 223
f 220 217 221
f 220 221 224
f 221 222 223
f 221 223 224
f 220 219 218
f 220 218 217
g F1_PARTY
usemtl concrete
f 225 226 230
f 225 230 229
f 226 227 231
f 226 231 230
f 227 228 232
f 227 232 231
f 228 225 229
f 228 229 232
f 229 230 231
f 229 231 232
f 228 227 226
f 228 226 225
g F1_BALC
usemtl balcony
f 233 234 238
f 233 238 237
f 234 235 239
f 234 239 238
f 235 236 240
f 235 240 239
f 236 233 237
f 236 237 240
f 237 238 239
f 237 239 240
f 236 235 234
f 236 234 233
g F1_RAIL
usemtl railing
f 241 242 246
f 241 246 245
f 242 243 247
f 242 247 246
f 243 244 248
f 243 248 247
f 244 241 245
f 244 245 248
f 245 246 247
f 245 247 248
f 244 243 242
f 244 242 241
g F1_RAIL_S
usemtl railing
f 249 250 254
f 249 254 253
f 250 251 255
f 250 255 254
f 251 252 256
f 251 256 255
f 252 249 253
f 252 253 256
f 253 254 255
f 253 255 256
f 252 251 250
f 252 250 249
g F1_RAIL_E
usemtl railing
f 257 258 262
f 257 262 261
f 258 259 263
f 258 263 262
f 259 260 264
f 259 264 263
f 260 257 261
f 260 261 264
f 261 262 263
f 261 263 264
f 260 259 258
f 260 258 257
g F1_PARTY
usemtl concrete
f 265 266 270
f 265 270 269
f 266 267 271
f 266 271 270
f 267 268 272
f 267 272 271
f 268 265 269
f 268 269 272
f 269 270 271
f 269 271 272
f 268 267 266
f 268 266 265
g F1_BALC
usemtl balcony
f 273 274 278
f 273 278 277
f 274 275 279
f 274 279 278
f 275 276 280
f 275 280 279
f 276 273 277
f 276 277 280
f 277 278 279
f 277 279 280
f 276 275 274
f 276 274 273
g F1_RAIL
usemtl railing
f 281 282 286
f 281 286 285
f 282 283 287
f 282 287 286
f 283 284 288
f 283 288 287
f 284 281 285
f 284 285 288
f 285 286 287
f 285 287 288
f 284 283 282
f 284 282 281
g F1_RAIL_S
usemtl railing
f 289 290 294
f 289 294 293
f 290 291 295
f 290 295 294
f 291 292 296
f 291 296 295
f 292 289 293
f 292 293 296
f 293 294 295
f 293 295 296
f 292 291 290
f 292 290 289
g F1_RAIL_E
usemtl railing
f 297 298 302
f 297 302 301
f 298 299 303
f 298 303 302
f 299 300 304
f 299 304 303
f 300 297 301
f 300 301 304
f 301 302 303
f 301 303 304
f 300 299 298
f 300 298 297
g F1_PARTY
usemtl concrete
f 305 306 310
f 305 310 309
f 306 307 311
f 306 311 310
f 307 308 312
f 307 312 311
f 308 305 309
f 308 309 312
f 309 310 311
f 309 311 312
f 308 307 306
f 308 306 305
g F1_BALC
usemtl balcony
f 313 314 318
f 313 318 317
f 314 315 319
f 314 319 318
f 315 316 320
f 315 320 319
f 316 313 317
f 316 317 320
f 317 318 319
f 317 319 320
f 316 315 314
f 316 314 313
g F1_RAIL
usemtl railing
f 321 322 326
f 321 326 325
f 322 323 327
f 322 327 326
f 323 324 328
f 323 328 327
f 324 321 325
f 324 325 328
f 325 326 327
f 325 327 328
f 324 323 322
f 324 322 321
g F1_RAIL_S
usemtl railing
f 329 330 334
f 329 334 333
f 330 331 335
f 330 335 334
f 331 332 336
f 331 336 335
f 332 329 333
f 332 333 336
f 333 334 335
f 333 335 336
f 332 331 330
f 332 330 329
g F1_RAIL_E
usemtl railing
f 337 338 342
f 337 342 341
f 338 339 343
f 338 343 342
f 339 340 344
f 339 344 343
f 340 337 341
f 340 341 344
f 341 342 343
f 341 343 344
f 340 339 338
f 340 338 337
g F1_PARTY
usemtl concrete
f 345 346 350
f 345 350 349
f 346 347 351
f 346 351 350
f 347 348 352
f 347 352 351
f 348 345 349
f 348 349 352
f 349 350 351
f 349 351 352
f 348 347 346
f 348 346 345
g F1_BALC
usemtl balcony
f 353 354 358
f 353 358 357
f 354 355 359
f 354 359 358
f 355 356 360
f 355 360 359
f 356 353 357
f 356 357 360
f 357 358 359
f 357 359 360
f 356 355 354
f 356 354 353
g F1_RAIL
usemtl railing
f 361 362 366
f 361 366 365
f 362 363 367
f 362 367 366
f 363 364 368
f 363 368 367
f 364 361 365
f 364 365 368
f 365 366 367
f 365 367 368
f 364 363 362
f 364 362 361
g F1_RAIL_S
usemtl railing
f 369 370 374
f 369 374 373
f 370 371 375
f 370 375 374
f 371 372 376
f 371 376 375
f 372 369 373
f 372 373 376
f 373 374 375
f 373 375 376
f 372 371 370
f 372 370 369
g F1_RAIL_E
usemtl railing
f 377 378 382
f 377 382 381
f 378 379 383
f 378 383 382
f 379 380 384
f 379 384 383
f 380 377 381
f 380 381 384
f 381 382 383
f 381 383 384
f 380 379 378
f 380 378 377
g F2_SLAB
usemtl slab
f 385 386 390
f 385 390 389
f 386 387 391
f 386 391 390
f 387 388 392
f 387 392 391
f 388 385 389
f 388 389 392
f 389 390 391
f 389 391 392
f 388 387 386
f 388 386 385
g F2_WALL_W
usemtl facade
f 393 394 398
f 393 398 397
f 394 395 399
f 394 399 398
f 395 396 400
f 395 400 399
f 396 393 397
f 396 397 400
f 397 398 399
f 397 399 400
f 396 395 394
f 396 394 393
g F2_WALL_E
usemtl facade
f 401 402 406
f 401 406 405
f 402 403 407
f 402 407 406
f 403 404 408
f 403 408 407
f 404 401 405
f 404 405 408
f 405 406 407
f 405 407 408
f 404 403 402
f 404 402 401
g F2_WALL_S
usemtl facade
f 409 410 414
f 409 414 413
f 410 411 415
f 410 415 414
f 411 412 416
f 411 416 415
f 412 409 413
f 412 413 416
f 413 414 415
f 413 415 416
f 412 411 410
f 412 410 409
g F2_WALL_N
usemtl facade
f 417 418 422
f 417 422 421
f 418 419 423
f 418 423 422
f 419 420 424
f 419 424 423
f 420 417 421
f 420 421 424
f 421 422 423
f 421 423 424
f 420 419 418
f 420 418 417
g F2_CORE
usemtl core
f 425 426 430
f 425 430 429
f 426 427 431
f 426 431 430
f 427 428 432
f 427 432 431
f 428 425 429
f 428 429 432
f 429 430 431
f 429 431 432
f 428 427 426
f 428 426 425
g F2_PARTY
usemtl concrete
f 433 434 438
f 433 438 437
f 434 435 439
f 434 439 438
f 435 436 440
f 435 440 439
f 436 433 437
f 436 437 440
f 437 438 439
f 437 439 440
f 436 435 434
f 436 434 433
g F2_BALC
usemtl balcony
f 441 442 446
f 441 446 445
f 442 443 447
f 442 447 446
f 443 444 448
f 443 448 447
f 444 441 445
f 444 445 448
f 445 446 447
f 445 447 448
f 444 443 442
f 444 442 441
g F2_RAIL
usemtl railing
f 449 450 454
f 449 454 453
f 450 451 455
f 450 455 454
f 451 452 456
f 451 456 455
f 452 449 453
f 452 453 456
f 453 454 455
f 453 455 456
f 452 451 450
f 452 450 449
g F2_RAIL_S
usemtl railing
f 457 458 462
f 457 462 461
f 458 459 463
f 458 463 462
f 459 460 464
f 459 464 463
f 460 457 461
f 460 461 464
f 461 462 463
f 461 463 464
f 460 459 458
f 460 458 457
g F2_RAIL_E
usemtl railing
f 465 466 470
f 465 470 469
f 466 467 471
f 466 471 470
f 467 468 472
f 467 472 471
f 468 465 469
f 468 469 472
f 469 470 471
f 469 471 472
f 468 467 466
f 468 466 465
g F2_PARTY
usemtl concrete
f 473 474 478
f 473 478 477
f 474 475 479
f 474 479 478
f 475 476 480
f 475 480 479
f 476 473 477
f 476 477 480
f 477 478 479
f 477 479 480
f 476 475 474
f 476 474 473
g F2_BALC
usemtl balcony
f 481 482 486
f 481 486 485
f 482 483 487
f 482 487 486
f 483 484 488
f 483 488 487
f 484 481 485
f 484 485 488
f 485 486 487
f 485 487 488
f 484 483 482
f 484 482 481
g F2_RAIL
usemtl railing
f 489 490 494
f 489 494 493
f 490 491 495
f 490 495 494
f 491 492 496
f 491 496 495
f 492 489 493
f 492 493 496
f 493 494 495
f 493 495 496
f 492 491 490
f 492 490 489
g F2_RAIL_S
usemtl railing
f 497 498 502
f 497 502 501
f 498 499 503
f 498 503 502
f 499 500 504
f 499 504 503
f 500 497 501
f 500 501 504
f 501 502 503
f 501 503 504
f 500 499 498
f 500 498 497
g F2_RAIL_E
usemtl railing
f 505 506 510
f 505 510 509
f 506 507 511
f 506 511 510
f 507 508 512
f 507 512 511
f 508 505 509
f 508 509 512
f 509 510 511
f 509 511 512
f 508 507 506
f 508 506 505
g F2_PARTY
usemtl concrete
f 513 514 518
f 513 518 517
f 514 515 519
f 514 519 518
f 515 516 520
f 515 520 519
f 516 513 517
f 516 517 520
f 517 518 519
f 517 519 520
f 516 515 514
f 516 514 513
g F2_BALC
usemtl balcony
f 521 522 526
f 521 526 525
f 522 523 527
f 522 527 526
f 523 524 528
f 523 528 527
f 524 521 525
f 524 525 528
f 525 526 527
f 525 527 528
f 524 523 522
f 524 522 521
g F2_RAIL
usemtl railing
f 529 530 534
f 529 534 533
f 530 531 535
f 530 535 534
f 531 532 536
f 531 536 535
f 532 529 533
f 532 533 536
f 533 534 535
f 533 535 536
f 532 531 530
f 532 530 529
g F2_RAIL_S
usemtl railing
f 537 538 542
f 537 542 541
f 538 539 543
f 538 543 542
f 539 540 544
f 539 544 543
f 540 537 541
f 540 541 544
f 541 542 543
f 541 543 544
f 540 539 538
f 540 538 537
g F2_RAIL_E
usemtl railing
f 545 546 550
f 545 550 549
f 546 547 551
f 546 551 550
f 547 548 552
f 547 552 551
f 548 545 549
f 548 549 552
f 549 550 551
f 549 551 552
f 548 547 546
f 548 546 545
g F2_PARTY
usemtl concrete
f 553 554 558
f 553 558 557
f 554 555 559
f 554 559 558
f 555 556 560
f 555 560 559
f 556 553 557
f 556 557 560
f 557 558 559
f 557 559 560
f 556 555 554
f 556 554 553
g F2_BALC
usemtl balcony
f 561 562 566
f 561 566 565
f 562 563 567
f 562 567 566
f 563 564 568
f 563 568 567
f 564 561 565
f 564 565 568
f 565 566 567
f 565 567 568
f 564 563 562
f 564 562 561
g F2_RAIL
usemtl railing
f 569 570 574
f 569 574 573
f 570 571 575
f 570 575 574
f 571 572 576
f 571 576 575
f 572 569 573
f 572 573 576
f 573 574 575
f 573 575 576
f 572 571 570
f 572 570 569
g F2_RAIL_S
usemtl railing
f 577 578 582
f 577 582 581
f 578 579 583
f 578 583 582
f 579 580 584
f 579 584 583
f 580 577 581
f 580 581 584
f 581 582 583
f 581 583 584
f 580 579 578
f 580 578 577
g F2_RAIL_E
usemtl railing
f 585 586 590
f 585 590 589
f 586 587 591
f 586 591 590
f 587 588 592
f 587 592 591
f 588 585 589
f 588 589 592
f 589 590 591
f 589 591 592
f 588 587 586
f 588 586 585
g F3_SLAB
usemtl slab
f 593 594 598
f 593 598 597
f 594 595 599
f 594 599 598
f 595 596 600
f 595 600 599
f 596 593 597
f 596 597 600
f 597 598 599
f 597 599 600
f 596 595 594
f 596 594 593
g F3_WALL_W
usemtl facade
f 601 602 606
f 601 606 605
f 602 603 607
f 602 607 606
f 603 604 608
f 603 608 607
f 604 601 605
f 604 605 608
f 605 606 607
f 605 607 608
f 604 603 602
f 604 602 601
g F3_WALL_E
usemtl facade
f 609 610 614
f 609 614 613
f 610 611 615
f 610 615 614
f 611 612 616
f 611 616 615
f 612 609 613
f 612 613 616
f 613 614 615
f 613 615 616
f 612 611 610
f 612 610 609
g F3_WALL_S
usemtl facade
f 617 618 622
f 617 622 621
f 618 619 623
f 618 623 622
f 619 620 624
f 619 624 623
f 620 617 621
f 620 621 624
f 621 622 623
f 621 623 624
f 620 619 618
f 620 618 617
g F3_WALL_N
usemtl facade
f 625 626 630
f 625 630 629
f 626 627 631
f 626 631 630
f 627 628 632
f 627 632 631
f 628 625 629
f 628 629 632
f 629 630 631
f 629 631 632
f 628 627 626
f 628 626 625
g F3_CORE
usemtl core
f 633 634 638
f 633 638 637
f 634 635 639
f 634 639 638
f 635 636 640
f 635 640 639
f 636 633 637
f 636 637 640
f 637 638 639
f 637 639 640
f 636 635 634
f 636 634 633
g F3_PARTY
usemtl concrete
f 641 642 646
f 641 646 645
f 642 643 647
f 642 647 646
f 643 644 648
f 643 648 647
f 644 641 645
f 644 645 648
f 645 646 647
f 645 647 648
f 644 643 642
f 644 642 641
g F3_BALC
usemtl balcony
f 649 650 654
f 649 654 653
f 650 651 655
f 650 655 654
f 651 652 656
f 651 656 655
f 652 649 653
f 652 653 656
f 653 654 655
f 653 655 656
f 652 651 650
f 652 650 649
g F3_RAIL
usemtl railing
f 657 658 662
f 657 662 661
f 658 659 663
f 658 663 662
f 659 660 664
f 659 664 663
f 660 657 661
f 660 661 664
f 661 662 663
f 661 663 664
f 660 659 658
f 660 658 657
g F3_RAIL_S
usemtl railing
f 665 666 670
f 665 670 669
f 666 667 671
f 666 671 670
f 667 668 672
f 667 672 671
f 668 665 669
f 668 669 672
f 669 670 671
f 669 671 672
f 668 667 666
f 668 666 665
g F3_RAIL_E
usemtl railing
f 673 674 678
f 673 678 677
f 674 675 679
f 674 679 678
f 675 676 680
f 675 680 679
f 676 673 677
f 676 677 680
f 677 678 679
f 677 679 680
f 676 675 674
f 676 674 673
g F3_PARTY
usemtl concrete
f 681 682 686
f 681 686 685
f 682 683 687
f 682 687 686
f 683 684 688
f 683 688 687
f 684 681 685
f 684 685 688
f 685 686 687
f 685 687 688
f 684 683 682
f 684 682 681
g F3_BALC
usemtl balcony
f 689 690 694
f 689 694 693
f 690 691 695
f 690 695 694
f 691 692 696
f 691 696 695
f 692 689 693
f 692 693 696
f 693 694 695
f 693 695 696
f 692 691 690
f 692 690 689
g F3_RAIL
usemtl railing
f 697 698 702
f 697 702 701
f 698 699 703
f 698 703 702
f 699 700 704
f 699 704 703
f 700 697 701
f 700 701 704
f 701 702 703
f 701 703 704
f 700 699 698
f 700 698 697
g F3_RAIL_S
usemtl railing
f 705 706 710
f 705 710 709
f 706 707 711
f 706 711 710
f 707 708 712
f 707 712 711
f 708 705 709
f 708 709 712
f 709 710 711
f 709 711 712
f 708 707 706
f 708 706 705
g F3_RAIL_E
usemtl railing
f 713 714 718
f 713 718 717
f 714 715 719
f 714 719 718
f 715 716 720
f 715 720 719
f 716 713 717
f 716 717 720
f 717 718 719
f 717 719 720
f 716 715 714
f 716 714 713
g F3_PARTY
usemtl concrete
f 721 722 726
f 721 726 725
f 722 723 727
f 722 727 726
f 723 724 728
f 723 728 727
f 724 721 725
f 724 725 728
f 725 726 727
f 725 727 728
f 724 723 722
f 724 722 721
g F3_BALC
usemtl balcony
f 729 730 734
f 729 734 733
f 730 731 735
f 730 735 734
f 731 732 736
f 731 736 735
f 732 729 733
f 732 733 736
f 733 734 735
f 733 735 736
f 732 731 730
f 732 730 729
g F3_RAIL
usemtl railing
f 737 738 742
f 737 742 741
f 738 739 743
f 738 743 742
f 739 740 744
f 739 744 743
f 740 737 741
f 740 741 744
f 741 742 743
f 741 743 744
f 740 739 738
f 740 738 737
g F3_RAIL_S
usemtl railing
f 745 746 750
f 745 750 749
f 746 747 751
f 746 751 750
f 747 748 752
f 747 752 751
f 748 745 749
f 748 749 752
f 749 750 751
f 749 751 752
f 748 747 746
f 748 746 745
g F3_RAIL_E
usemtl railing
f 753 754 758
f 753 758 757
f 754 755 759
f 754 759 758
f 755 756 760
f 755 760 759
f 756 753 757
f 756 757 760
f 757 758 759
f 757 759 760
f 756 755 754
f 756 754 753
g F3_PARTY
usemtl concrete
f 761 762 766
f 761 766 765
f 762 763 767
f 762 767 766
f 763 764 768
f 763 768 767
f 764 761 765
f 764 765 768
f 765 766 767
f 765 767 768
f 764 763 762
f 764 762 761
g F3_BALC
usemtl balcony
f 769 770 774
f 769 774 773
f 770 771 775
f 770 775 774
f 771 772 776
f 771 776 775
f 772 769 773
f 772 773 776
f 773 774 775
f 773 775 776
f 772 771 770
f 772 770 769
g F3_RAIL
usemtl railing
f 777 778 782
f 777 782 781
f 778 779 783
f 778 783 782
f 779 780 784
f 779 784 783
f 780 777 781
f 780 781 784
f 781 782 783
f 781 783 784
f 780 779 778
f 780 778 777
g F3_RAIL_S
usemtl railing
f 785 786 790
f 785 790 789
f 786 787 791
f 786 791 790
f 787 788 792
f 787 792 791
f 788 785 789
f 788 789 792
f 789 790 791
f 789 791 792
f 788 787 786
f 788 786 785
g F3_RAIL_E
usemtl railing
f 793 794 798
f 793 798 797
f 794 795 799
f 794 799 798
f 795 796 800
f 795 800 799
f 796 793 797
f 796 797 800
f 797 798 799
f 797 799 800
f 796 795 794
f 796 794 793
g ROOF_SLAB
usemtl roof
f 801 802 806
f 801 806 805
f 802 803 807
f 802 807 806
f 803 804 808
f 803 808 807
f 804 801 805
f 804 805 808
f 805 806 807
f 805 807 808
f 804 803 802
f 804 802 801
g ROOF_PARAPET_W
usemtl parapet
f 809 810 814
f 809 814 813
f 810 811 815
f 810 815 814
f 811 812 816
f 811 816 815
f 812 809 813
f 812 813 816
f 813 814 815
f 813 815 816
f 812 811 810
f 812 810 809
g ROOF_PARAPET_E
usemtl parapet
f 817 818 822
f 817 822 821
f 818 819 823
f 818 823 822
f 819 820 824
f 819 824 823
f 820 817 821
f 820 821 824
f 821 822 823
f 821 823 824
f 820 819 818
f 820 818 817
g ROOF_PARAPET_S
usemtl parapet
f 825 826 830
f 825 830 829
f 826 827 831
f 826 831 830
f 827 828 832
f 827 832 831
f 828 825 829
f 828 829 832
f 829 830 831
f 829 831 832
f 828 827 826
f 828 826 825
g ROOF_PARAPET_N
usemtl parapet
f 833 834 838
f 833 838 837
f 834 835 839
f 834 839 838
f 835 836 840
f 835 840 839
f 836 833 837
f 836 837 840
f 837 838 839
f 837 839 840
f 836 835 834
f 836 834 833
g ROOF_CORE
usemtl core
f 841 842 846
f 841 846 845
f 842 843 847
f 842 847 846
f 843 844 848
f 843 848 847
f 844 841 845
f 844 845 848
f 845 846 847
f 845 847 848
f 844 843 842
f 844 842 841
